<?xml version="1.0" encoding="UTF-8" standalone="no"?>
<!DOCTYPE svg PUBLIC "-//W3C//DTD SVG 1.1//EN"
 "http://www.w3.org/Graphics/SVG/1.1/DTD/svg11.dtd">
<!-- Generated by graphviz version 2.38.0 (20140413.2041)
 -->
<!-- Title: dependencies Pages: 1 -->
<svg width="842pt" height="188pt"
 viewBox="0.00 0.00 841.58 188.00" xmlns="http://www.w3.org/2000/svg" xmlns:xlink="http://www.w3.org/1999/xlink">
<g id="graph0" class="graph" transform="scale(1 1) rotate(0) translate(4 184)">
<title>dependencies</title>
<polygon fill="white" stroke="none" points="-4,4 -4,-184 837.582,-184 837.582,4 -4,4"/>
<!-- DemoAppAppComponent -->
<g id="node1" class="node"><title>DemoAppAppComponent</title>
<polygon fill="lightgrey" stroke="black" points="255.189,-36 91.6737,-36 91.6737,-32 87.6737,-32 87.6737,-28 91.6737,-28 91.6737,-8 87.6737,-8 87.6737,-4 91.6737,-4 91.6737,-0 255.189,-0 255.189,-36"/>
<polyline fill="none" stroke="black" points="91.6737,-32 95.6737,-32 95.6737,-28 91.6737,-28 "/>
<polyline fill="none" stroke="black" points="91.6737,-8 95.6737,-8 95.6737,-4 91.6737,-4 "/>
<text text-anchor="middle" x="173.431" y="-13.8" font-family="Times,serif" font-size="14.00">DemoAppAppComponent</text>
</g>
<!-- demo&#45;app.component.html -->
<g id="node2" class="node"><title>demo&#45;app.component.html</title>
<polygon fill="#b3de69" stroke="#b3de69" points="160.794,-108 0.0686435,-108 0.0686435,-72 166.794,-72 166.794,-102 160.794,-108"/>
<polyline fill="none" stroke="#b3de69" points="160.794,-108 160.794,-102 "/>
<polyline fill="none" stroke="#b3de69" points="166.794,-102 160.794,-102 "/>
<text text-anchor="middle" x="83.4313" y="-85.8" font-family="Times,serif" font-size="14.00">demo&#45;app.component.html</text>
</g>
<!-- DemoAppAppComponent&#45;&gt;demo&#45;app.component.html -->
<g id="edge1" class="edge"><title>DemoAppAppComponent&#45;&gt;demo&#45;app.component.html</title>
<path fill="none" stroke="black" stroke-dasharray="1,5" d="M129.208,-36.1686C129.208,-36.1686 129.208,-61.5867 129.208,-61.5867"/>
<polygon fill="black" stroke="black" points="125.708,-61.5867 129.208,-71.5867 132.708,-61.5868 125.708,-61.5867"/>
</g>
<!-- demo&#45;app.component.css -->
<g id="node3" class="node"><title>demo&#45;app.component.css</title>
<polygon fill="#fccde5" stroke="#fccde5" points="337.726,-108 185.136,-108 185.136,-72 343.726,-72 343.726,-102 337.726,-108"/>
<polyline fill="none" stroke="#fccde5" points="337.726,-108 337.726,-102 "/>
<polyline fill="none" stroke="#fccde5" points="343.726,-102 337.726,-102 "/>
<text text-anchor="middle" x="264.431" y="-85.8" font-family="Times,serif" font-size="14.00">demo&#45;app.component.css</text>
</g>
<!-- DemoAppAppComponent&#45;&gt;demo&#45;app.component.css -->
<g id="edge2" class="edge"><title>DemoAppAppComponent&#45;&gt;demo&#45;app.component.css</title>
<path fill="none" stroke="black" stroke-dasharray="1,5" d="M220.297,-36.1686C220.297,-36.1686 220.297,-61.5867 220.297,-61.5867"/>
<polygon fill="black" stroke="black" points="216.797,-61.5867 220.297,-71.5867 223.797,-61.5868 216.797,-61.5867"/>
</g>
<!-- ProductDetailsComponent -->
<g id="node4" class="node"><title>ProductDetailsComponent</title>
<polygon fill="lightgrey" stroke="black" points="548.465,-36 384.398,-36 384.398,-32 380.398,-32 380.398,-28 384.398,-28 384.398,-8 380.398,-8 380.398,-4 384.398,-4 384.398,-0 548.465,-0 548.465,-36"/>
<polyline fill="none" stroke="black" points="384.398,-32 388.398,-32 388.398,-28 384.398,-28 "/>
<polyline fill="none" stroke="black" points="384.398,-8 388.398,-8 388.398,-4 384.398,-4 "/>
<text text-anchor="middle" x="466.431" y="-13.8" font-family="Times,serif" font-size="14.00">ProductDetailsComponent</text>
</g>
<!-- product&#45;details.component.html -->
<g id="node5" class="node"><title>product&#45;details.component.html</title>
<polygon fill="#b3de69" stroke="#b3de69" points="550.786,-108 362.077,-108 362.077,-72 556.786,-72 556.786,-102 550.786,-108"/>
<polyline fill="none" stroke="#b3de69" points="550.786,-108 550.786,-102 "/>
<polyline fill="none" stroke="#b3de69" points="556.786,-102 550.786,-102 "/>
<text text-anchor="middle" x="459.431" y="-85.8" font-family="Times,serif" font-size="14.00">product&#45;details.component.html</text>
</g>
<!-- ProductDetailsComponent&#45;&gt;product&#45;details.component.html -->
<g id="edge3" class="edge"><title>ProductDetailsComponent&#45;&gt;product&#45;details.component.html</title>
<path fill="none" stroke="black" stroke-dasharray="1,5" d="M466.431,-36.1686C466.431,-36.1686 466.431,-61.5867 466.431,-61.5867"/>
<polygon fill="black" stroke="black" points="462.931,-61.5867 466.431,-71.5867 469.931,-61.5868 462.931,-61.5867"/>
</g>
<!-- ProductsListComponent -->
<g id="node6" class="node"><title>ProductsListComponent</title>
<polygon fill="lightgrey" stroke="black" points="726.535,-108 574.327,-108 574.327,-104 570.327,-104 570.327,-100 574.327,-100 574.327,-80 570.327,-80 570.327,-76 574.327,-76 574.327,-72 726.535,-72 726.535,-108"/>
<polyline fill="none" stroke="black" points="574.327,-104 578.327,-104 578.327,-100 574.327,-100 "/>
<polyline fill="none" stroke="black" points="574.327,-80 578.327,-80 578.327,-76 574.327,-76 "/>
<text text-anchor="middle" x="650.431" y="-85.8" font-family="Times,serif" font-size="14.00">ProductsListComponent</text>
</g>
<!-- ProductDetailsComponent&#45;&gt;ProductsListComponent -->
<g id="edge5" class="edge"><title>ProductDetailsComponent&#45;&gt;ProductsListComponent</title>
<path fill="none" stroke="black" d="M548.793,-18C558.825,-18 565.619,-18 565.619,-18 565.619,-18 565.619,-90 565.619,-90 565.619,-90 566.495,-90 566.495,-90"/>
<polygon fill="black" stroke="black" points="564.376,-93.5001 574.376,-90 564.376,-86.5001 564.376,-93.5001"/>
</g>
<!-- products&#45;list.component.html -->
<g id="node8" class="node"><title>products&#45;list.component.html</title>
<polygon fill="#b3de69" stroke="#b3de69" points="636.801,-180 462.062,-180 462.062,-144 642.801,-144 642.801,-174 636.801,-180"/>
<polyline fill="none" stroke="#b3de69" points="636.801,-180 636.801,-174 "/>
<polyline fill="none" stroke="#b3de69" points="642.801,-174 636.801,-174 "/>
<text text-anchor="middle" x="552.431" y="-157.8" font-family="Times,serif" font-size="14.00">products&#45;list.component.html</text>
</g>
<!-- ProductsListComponent&#45;&gt;products&#45;list.component.html -->
<g id="edge6" class="edge"><title>ProductsListComponent&#45;&gt;products&#45;list.component.html</title>
<path fill="none" stroke="black" stroke-dasharray="1,5" d="M608.623,-108.169C608.623,-108.169 608.623,-133.587 608.623,-133.587"/>
<polygon fill="black" stroke="black" points="605.123,-133.587 608.623,-143.587 612.123,-133.587 605.123,-133.587"/>
</g>
<!-- products&#45;list.component.css -->
<g id="node9" class="node"><title>products&#45;list.component.css</title>
<polygon fill="#fccde5" stroke="#fccde5" points="827.733,-180 661.129,-180 661.129,-144 833.733,-144 833.733,-174 827.733,-180"/>
<polyline fill="none" stroke="#fccde5" points="827.733,-180 827.733,-174 "/>
<polyline fill="none" stroke="#fccde5" points="833.733,-174 827.733,-174 "/>
<text text-anchor="middle" x="747.431" y="-157.8" font-family="Times,serif" font-size="14.00">products&#45;list.component.css</text>
</g>
<!-- ProductsListComponent&#45;&gt;products&#45;list.component.css -->
<g id="edge7" class="edge"><title>ProductsListComponent&#45;&gt;products&#45;list.component.css</title>
<path fill="none" stroke="black" stroke-dasharray="1,5" d="M693.882,-108.169C693.882,-108.169 693.882,-133.587 693.882,-133.587"/>
<polygon fill="black" stroke="black" points="690.382,-133.587 693.882,-143.587 697.382,-133.587 690.382,-133.587"/>
</g>
<!-- FavoritesService -->
<g id="node7" class="node"><title>FavoritesService</title>
<ellipse fill="#8dd3c7" stroke="black" cx="650.431" cy="-18" rx="75.8566" ry="18"/>
<text text-anchor="middle" x="650.431" y="-13.8" font-family="Times,serif" font-size="14.00">FavoritesService</text>
</g>
<!-- FavoritesService&#45;&gt;ProductsListComponent -->
<g id="edge4" class="edge"><title>FavoritesService&#45;&gt;ProductsListComponent</title>
<path fill="none" stroke="black" d="M650.431,-36.1686C650.431,-36.1686 650.431,-61.5867 650.431,-61.5867"/>
<polygon fill="black" stroke="black" points="646.931,-61.5867 650.431,-71.5867 653.931,-61.5868 646.931,-61.5867"/>
</g>
</g>
</svg>
